<?xml version="1.0" standalone="yes"?>
<svg xmlns="http://www.w3.org/2000/svg" width="270" height="270">
<path style="fill:#289dcc; stroke:none;" d="M0 0L0 270L270 270L270 0L0 0z"/>
<path style="fill:#50b7d9; stroke:none;" d="M102 57L102 62L103 62L102 57z"/>
<path style="fill:#a7c4d8; stroke:none;" d="M103 57L103 58L128 58L103 57z"/>
<path style="fill:#50b7d9; stroke:none;" d="M128 57L128 152L129 152L129 86L128 57z"/>
<path style="fill:#fefeff; stroke:none;" d="M103 58L103 174L184 174L184 152L128 152L128 58L103 58z"/>
<path style="fill:#032b6b; stroke:none;" d="M102 65L82 187L180 176L180 175L103 175L103 98L102 65z"/>
<path style="fill:#50b7d9; stroke:none;" d="M100 69L101 70L100 69M99 75L100 76L99 75M97 87L98 88L97 87M96 92L97 93L96 92M93 110L94 111L93 110M90.3333 127.667L90.6667 128.333L90.3333 127.667M89 133L90 134L89 133M87 145L88 146L87 145z"/>
<path style="fill:#a7c4d8; stroke:none;" d="M184 152L184 174L103 174L103 175L162 175C167.088 175 179.275 177.237 183.397 173.972C187.079 171.055 185.631 155.887 184 152z"/>
<path style="fill:#50b7d9; stroke:none;" d="M84 163L85 164L84 163M83 168L84 169L83 168M184 174L185 175L184 174M120.667 183.333L121.333 183.667L120.667 183.333M102 185L103 186L102 185M80 186L81 187L80 186M95 186L96 187L95 186M87 187L88 188L87 187z"/>
</svg>
