<?xml version="1.0" encoding="UTF-8"?>
<svg xmlns="http://www.w3.org/2000/svg" xmlns:xlink="http://www.w3.org/1999/xlink" width="16px" height="16px" viewBox="0 0 16 16" version="1.1">
<g id="surface1">
<rect x="0" y="0" width="16" height="16" style="fill:rgb(15.686275%,61.568627%,80%);fill-opacity:1;stroke:none;"/>
<path style=" stroke:none;fill-rule:nonzero;fill:rgb(31.372549%,71.764706%,85.098039%);fill-opacity:1;" d="M 6.042969 3.378906 L 6.042969 3.675781 L 6.105469 3.675781 Z M 6.042969 3.378906 "/>
<path style=" stroke:none;fill-rule:nonzero;fill:rgb(65.490196%,76.862745%,84.705882%);fill-opacity:1;" d="M 6.105469 3.378906 L 6.105469 3.4375 L 7.585938 3.4375 Z M 6.105469 3.378906 "/>
<path style=" stroke:none;fill-rule:nonzero;fill:rgb(31.372549%,71.764706%,85.098039%);fill-opacity:1;" d="M 7.585938 3.378906 L 7.585938 9.007812 L 7.644531 9.007812 L 7.644531 5.097656 Z M 7.585938 3.378906 "/>
<path style=" stroke:none;fill-rule:nonzero;fill:rgb(99.607843%,99.607843%,100%);fill-opacity:1;" d="M 6.105469 3.4375 L 6.105469 10.3125 L 10.902344 10.3125 L 10.902344 9.007812 L 7.585938 9.007812 L 7.585938 3.4375 Z M 6.105469 3.4375 "/>
<path style=" stroke:none;fill-rule:nonzero;fill:rgb(1.176471%,16.862745%,41.960784%);fill-opacity:1;" d="M 6.042969 3.851562 L 4.859375 11.082031 L 10.667969 10.429688 L 10.667969 10.371094 L 6.105469 10.371094 L 6.105469 5.808594 Z M 6.042969 3.851562 "/>
<path style=" stroke:none;fill-rule:nonzero;fill:rgb(31.372549%,71.764706%,85.098039%);fill-opacity:1;" d="M 5.925781 4.089844 L 5.984375 4.148438 L 5.925781 4.089844 M 5.867188 4.445312 L 5.925781 4.503906 L 5.867188 4.445312 M 5.75 5.15625 L 5.808594 5.214844 L 5.75 5.15625 M 5.6875 5.453125 L 5.75 5.511719 L 5.6875 5.453125 M 5.511719 6.519531 L 5.570312 6.578125 L 5.511719 6.519531 M 5.351562 7.566406 L 5.371094 7.605469 L 5.351562 7.566406 M 5.273438 7.882812 L 5.332031 7.941406 L 5.273438 7.882812 M 5.15625 8.59375 L 5.214844 8.652344 Z M 5.15625 8.59375 "/>
<path style=" stroke:none;fill-rule:nonzero;fill:rgb(65.490196%,76.862745%,84.705882%);fill-opacity:1;" d="M 10.902344 9.007812 L 10.902344 10.3125 L 6.105469 10.3125 L 6.105469 10.371094 L 9.601562 10.371094 C 9.902344 10.371094 10.625 10.503906 10.867188 10.308594 C 11.085938 10.136719 11 9.238281 10.902344 9.007812 Z M 10.902344 9.007812 "/>
<path style=" stroke:none;fill-rule:nonzero;fill:rgb(31.372549%,71.764706%,85.098039%);fill-opacity:1;" d="M 4.976562 9.660156 L 5.035156 9.71875 L 4.976562 9.660156 M 4.917969 9.957031 L 4.976562 10.015625 L 4.917969 9.957031 M 10.902344 10.3125 L 10.964844 10.371094 L 10.902344 10.3125 M 7.152344 10.863281 L 7.191406 10.882812 L 7.152344 10.863281 M 6.042969 10.964844 L 6.105469 11.023438 L 6.042969 10.964844 M 4.742188 11.023438 L 4.800781 11.082031 L 4.742188 11.023438 M 5.628906 11.023438 L 5.6875 11.082031 L 5.628906 11.023438 M 5.15625 11.082031 L 5.214844 11.140625 Z M 5.15625 11.082031 "/>
</g>
</svg>
